<?xml version="1.0" encoding="utf-8"?>
<!-- Generator: Adobe Illustrator 23.0.5, SVG Export Plug-In . SVG Version: 6.00 Build 0)  -->
<svg version="1.1" id="Capa_1" xmlns="http://www.w3.org/2000/svg" xmlns:xlink="http://www.w3.org/1999/xlink" x="0px" y="0px"
	 viewBox="0 0 50 50" style="enable-background:new 0 0 50 50;" xml:space="preserve">
<style type="text/css">
	.st0{fill:#2C313D;}
	.st1{fill:#FFFFFF;}
</style>
<circle class="st0" cx="25" cy="25" r="23"/>
<g>
	<path class="st1" d="M38.3,15.5c-1.1,0.6-2.3,1.1-3.5,1.3c-1-1.1-2.4-1.7-4-1.7c-3.1,0-5.5,2.5-5.5,5.5c0,0.4,0,0.9,0.1,1.3
		c-4.6-0.2-8.7-2.4-11.4-5.8c-0.5,0.8-0.7,1.8-0.7,2.8c0,1.9,1,3.6,2.5,4.6c-0.9,0-1.8-0.3-2.5-0.7c0,0,0,0,0,0.1
		c0,2.7,1.9,4.9,4.4,5.4c-0.5,0.1-1,0.2-1.5,0.2c-0.4,0-0.7,0-1-0.1c0.7,2.2,2.8,3.8,5.2,3.8c-1.9,1.5-4.3,2.4-6.9,2.4
		c-0.4,0-0.9,0-1.3-0.1c2.5,1.6,5.4,2.5,8.5,2.5c10.2,0,15.8-8.4,15.8-15.8c0-0.2,0-0.5,0-0.7c1.1-0.8,2-1.8,2.8-2.9
		c-1,0.4-2.1,0.7-3.2,0.9C37,17.8,37.8,16.8,38.3,15.5z"/>
</g>
</svg>
