<?xml version="1.0" encoding="utf-8"?>
<!-- Generator: Adobe Illustrator 23.0.5, SVG Export Plug-In . SVG Version: 6.00 Build 0)  -->
<svg version="1.1" id="Capa_1" xmlns="http://www.w3.org/2000/svg" xmlns:xlink="http://www.w3.org/1999/xlink" x="0px" y="0px"
	 viewBox="0 0 338 239.8" style="enable-background:new 0 0 338 239.8;" xml:space="preserve">
<style type="text/css">
	.st0{fill:#1D4ED8;}
</style>
<title>mailRecurso 1</title>
<g>
	<g id="Capa_1-2">
		<path class="st0" d="M0.1,38.1C53,75.9,100.5,109,146.8,143.5c15.2,11.3,26.2,12,41.8,0.4c46.4-34.6,93.9-67.6,147.1-105.7
			c0,32.1,0,59.2,0,86.2c0,28-0.4,55.9,0.1,83.9c0.4,21-8.5,31.5-30.1,31.4c-91.9-0.2-183.8-0.2-275.7,0c-17.5,0-29.7-6.1-29.8-25.3
			C-0.2,157.9,0.1,101.3,0.1,38.1z"/>
		<path class="st0" d="M338,8.2c-57.9,41.4-107.1,77.2-157.3,111.5c-6,4.1-19.7,4-25.7-0.1C104.9,85.3,55.7,49.5,0,9.7
			c13.7-4.4,21.8-9.2,29.9-9.3c91.9-0.5,183.9-0.6,275.8-0.1C313.6,0.3,321.5,4,338,8.2z"/>
	</g>
</g>
</svg>
